<svg preserveAspectRatio="none" width="100%" height="100%" overflow="visible" style="display: block;" viewBox="0 0 128 18" fill="none" xmlns="http://www.w3.org/2000/svg">
<path id="Arrow 22" d="M21.0438 6.35654C54.283 3.14393 83.7308 1.0369 105.067 0.344496C119.004 -0.107549 126.498 -0.114715 127.3 0.322991C128.129 0.775036 128.251 2.28323 127.508 2.91112C127.212 3.16167 122.857 3.65107 117.052 4.08651C98.7824 5.45661 75.1378 8.0187 55.8376 10.72C41.9653 12.6614 41.8102 12.715 50.8407 12.4418C55.3194 12.3067 69.6086 12.1958 82.5945 12.1958C103.179 12.1958 106.25 12.2682 106.556 12.7618C106.749 13.0731 106.909 13.4493 106.912 13.5976C106.933 14.5662 104.281 14.7077 79.9734 15.0367C53.2581 15.3986 46.1183 15.6778 31.593 16.9302C17.0107 18.1878 17.171 18.1795 16.3004 17.7045C15.304 17.1607 15.2414 15.7506 16.176 14.8888C17.5378 13.6327 34.6519 10.4163 54.5421 7.6791C69.5834 5.60905 69.6819 5.59169 65.0913 5.81017C59.3648 6.08298 40.7838 7.65985 22.9693 9.3854C13.484 10.3042 5.89742 10.8596 3.72169 10.7944C0.344102 10.6929 0.12348 10.637 0.0150274 9.85819C-0.174858 8.49942 1.14546 8.27981 21.0438 6.35654Z" fill="var(--fill-0, #6297D6)"/>
</svg>
