<svg preserveAspectRatio="none" width="100%" height="100%" overflow="visible" style="display: block;" viewBox="0 0 122 18" fill="none" xmlns="http://www.w3.org/2000/svg">
<path id="Arrow 22" d="M20.0574 6.35654C51.7385 3.14393 79.8059 1.0369 100.142 0.344496C113.425 -0.107549 120.568 -0.114715 121.333 0.322991C122.123 0.775036 122.239 2.28323 121.532 2.91112C121.249 3.16167 117.098 3.65107 111.565 4.08651C94.152 5.45661 71.6158 8.0187 53.2203 10.72C39.9981 12.6614 39.8503 12.715 48.4575 12.4418C52.7263 12.3067 66.3457 12.1958 78.7228 12.1958C98.3422 12.1958 101.269 12.2682 101.561 12.7618C101.745 13.0731 101.898 13.4493 101.901 13.5976C101.92 14.5662 99.3932 14.7077 76.2247 15.0367C50.7616 15.3986 43.9565 15.6778 30.1121 16.9302C16.2133 18.1878 16.3661 18.1795 15.5363 17.7045C14.5866 17.1607 14.527 15.7506 15.4178 14.8888C16.7157 13.6327 33.0276 10.4163 51.9855 7.6791C66.3217 5.60905 66.4155 5.59169 62.0402 5.81017C56.5821 6.08298 38.872 7.65985 21.8927 9.3854C12.8519 10.3042 5.62098 10.8596 3.54724 10.7944C0.327973 10.6929 0.117692 10.637 0.014323 9.85819C-0.166662 8.49942 1.09177 8.27981 20.0574 6.35654Z" fill="var(--fill-0, #F2A4E6)"/>
</svg>
