<svg preserveAspectRatio="none" width="100%" height="100%" overflow="visible" style="display: block;" viewBox="0 0 170.311 107.378" fill="none" xmlns="http://www.w3.org/2000/svg">
<path id="Vector" fill-rule="evenodd" clip-rule="evenodd" d="M61.471 3.11587C40.5067 5.89872 19.93 13.5225 9.80776 26.1449C6.82137 29.8668 4.95109 33.942 3.68156 38.0678C0.661084 47.8675 1.01901 58.2534 6.31443 67.624C11.6056 76.9946 22.1069 85.2517 35.927 89.3943C44.8989 92.084 57.9564 92.9675 67.8528 93.4247C73.5828 93.6911 78.0815 96.9642 77.5021 100.725C77.2422 102.405 76.5989 104.055 75.5679 105.6C79.5597 104.055 83.0276 101.929 85.6561 99.4184C86.6701 98.4451 87.5902 97.3962 89.0046 96.6669C90.8918 95.6937 93.3884 95.4328 95.7613 95.2056C111.354 93.7107 122.856 92.0644 136.855 87.0102C164.61 76.9918 174.379 54.4614 165.164 35.5155C152.2 8.85434 109.858 -0.507554 70.1831 2.23715C67.2904 2.43741 64.3765 2.72994 61.471 3.11587Z" fill="var(--fill-0, #FB9679)" fill-opacity="0.3" stroke="var(--stroke-0, #FB9679)" stroke-width="3.55556" stroke-miterlimit="2" stroke-linecap="round" stroke-linejoin="round"/>
</svg>
