<svg preserveAspectRatio="none" width="100%" height="100%" overflow="visible" style="display: block;" viewBox="0 0 512 281" fill="none" xmlns="http://www.w3.org/2000/svg">
<g id="Vector">
<path d="M28.8618 124.997C19.2981 123.404 12.2962 119.248 7.85588 112.532C3.52945 105.815 1.36624 97.8462 1.36624 88.6251C1.36624 81.9085 2.44785 74.9073 4.61106 67.6215C6.77427 60.2218 9.84831 52.9929 13.8332 45.9348C17.9319 38.8767 22.8276 32.3308 28.5202 26.2972C34.2129 20.1498 40.6456 14.9132 47.8184 10.5872C54.9911 6.26125 62.7901 3.24446 71.2152 1.53684C76.3386 0.512281 81.2343 0 85.9023 0C95.0105 0 102.297 1.82145 107.762 5.46435C113.227 8.99342 115.96 13.5471 115.96 19.1253C115.96 20.2637 115.846 21.4021 115.618 22.5405C115.504 23.5651 115.163 24.7035 114.593 25.9557C113.341 29.2571 111.235 32.217 108.274 34.8353C105.428 37.3398 102.126 39.2751 98.3692 40.6412C94.7259 42.0073 90.9687 42.5765 87.0977 42.3488C85.2761 42.1211 83.6821 41.495 82.3159 40.4704C81.0635 39.332 80.4373 37.9659 80.4373 36.3722C80.4373 34.7784 81.1204 33.0708 82.4867 31.2493C83.7391 31.7047 85.1622 31.9324 86.7562 31.9324C89.6025 31.9324 92.3919 31.2493 95.1244 29.8832C97.8569 28.5171 100.134 26.6388 101.956 24.2481C103.777 21.8574 104.688 19.1822 104.688 16.2223C104.688 12.2379 103.322 9.61955 100.589 8.3673C97.8569 7.00121 94.7828 6.31817 91.3672 6.31817C89.0902 6.31817 86.8131 6.54585 84.536 7.00121C82.3728 7.34273 80.6081 7.68426 79.2419 8.02578C72.7522 9.73339 66.0918 12.864 59.2606 17.4177C52.5433 21.8574 46.3952 27.3218 40.8164 33.8107C35.2376 40.1858 30.9112 47.1871 27.8371 54.8144C25.5601 60.3926 23.7953 66.0277 22.5429 71.7198C21.2906 77.4118 20.6644 82.8192 20.6644 87.9421C20.6644 94.5449 21.746 100.351 23.9092 105.36C26.1862 110.369 29.7726 113.841 34.6683 115.776C39.1086 117.484 43.6627 118.338 48.3307 118.338C55.845 118.338 63.4163 116.516 71.0444 112.873C78.7865 109.23 85.9023 104.62 92.3919 99.0416C96.3768 95.5125 99.9632 91.8696 103.151 88.1129C106.339 84.3561 108.787 80.3717 110.495 76.1596C112.658 77.5257 113.739 79.5179 113.739 82.1362C113.739 84.1853 113.113 86.4052 111.861 88.7959C110.722 91.1866 109.356 93.4065 107.762 95.4556C106.282 97.5047 104.973 99.0985 103.834 100.237C95.8644 108.547 86.3008 114.922 75.1431 119.362C64.0994 123.802 52.8848 126.022 41.4995 126.022C37.1731 126.022 32.9605 125.68 28.8618 124.997Z" fill="var(--fill-0, black)"/>
<path d="M156.723 38.9336C153.762 37.909 152.282 35.9737 152.282 33.1277C152.282 30.5094 153.307 27.8341 155.356 25.1019C157.52 22.2559 159.854 20.4344 162.358 19.6375C162.928 19.4099 163.383 19.296 163.725 19.296C164.18 19.296 164.635 19.296 165.091 19.296C167.026 19.296 168.62 19.8652 169.873 21.0036C171.125 22.142 171.751 23.4512 171.751 24.9312C171.751 26.9803 170.67 28.6879 168.506 30.054C166.799 29.8263 165.148 30.2248 163.554 31.2493C161.96 32.2739 160.537 33.5261 159.284 35.0061C158.146 36.486 157.292 37.7952 156.723 38.9336ZM127.348 121.924C125.868 121.924 124.445 121.582 123.079 120.899C121.713 120.33 120.574 119.134 119.663 117.313C118.411 114.581 117.785 111.336 117.785 107.58C117.785 103.481 118.411 98.9277 119.663 93.9187C120.916 88.7959 122.567 83.5592 124.616 78.2087C125.413 76.2734 126.438 73.8827 127.69 71.0367C128.942 68.1907 130.422 65.3447 132.13 62.4987C133.838 59.6526 135.774 57.3189 137.937 55.4974C140.214 53.5621 142.662 52.5945 145.28 52.5945C146.533 52.5945 148.297 52.6514 150.574 52.7653C152.852 52.8791 154.502 52.8791 155.527 52.7653C154.844 53.2206 154.047 54.1313 153.136 55.4974C152.225 56.8635 151.371 58.2865 150.574 59.7665C149.778 61.1326 149.151 62.214 148.696 63.0109C145.736 68.9307 142.946 74.7935 140.328 80.5994C137.709 86.4052 135.717 91.9835 134.35 97.334C134.123 98.2447 133.952 99.1554 133.838 100.066C133.724 100.977 133.667 101.831 133.667 102.628C133.667 105.929 134.749 107.58 136.912 107.58C137.823 107.58 138.791 107.352 139.815 106.897C140.954 106.327 142.263 105.474 143.743 104.335C146.362 102.286 148.639 99.9523 150.574 97.334C152.852 94.3741 155.015 91.2435 157.064 87.9421C159.113 84.5269 160.878 81.3962 162.358 78.5502C162.928 77.6395 163.326 77.1841 163.554 77.1841C164.237 77.1841 164.578 78.1518 164.578 80.0871C164.578 80.9978 164.408 82.0793 164.066 83.3315C163.838 84.4699 163.44 85.5514 162.871 86.576C161.277 89.3082 159.398 92.325 157.235 95.6264C155.072 98.9277 152.852 102.115 150.574 105.189C148.981 107.352 146.874 109.743 144.256 112.361C141.637 114.979 138.848 117.256 135.887 119.191C132.927 121.013 130.081 121.924 127.348 121.924Z" fill="var(--fill-0, black)"/>
<path d="M213.558 121.924C210.028 121.924 207.58 120.558 206.214 117.825C204.962 115.093 204.335 111.735 204.335 107.75C204.335 104.108 204.677 100.522 205.36 96.9924C205.702 95.3987 206.043 93.8049 206.385 92.2111C206.84 90.5035 207.353 88.739 207.922 86.9175C205.986 90.4466 203.937 93.8618 201.774 97.1632C199.724 100.465 197.618 103.368 195.455 105.872C191.812 110.312 187.941 114.012 183.842 116.972C179.857 119.931 175.872 121.411 171.887 121.411C168.699 121.411 165.967 120.273 163.69 117.996C161.527 115.605 160.445 111.507 160.445 105.701C160.445 99.7815 161.47 93.6911 163.519 87.4298C165.568 81.1686 168.415 75.3627 172.058 70.0121C175.815 64.5478 180.199 60.1649 185.208 56.8635C190.332 53.5621 195.91 51.9114 201.945 51.9114C203.88 51.9114 205.986 52.1961 208.263 52.7653C210.54 53.3345 212.647 54.4159 214.582 56.0097C216.518 57.4896 217.827 59.5957 218.51 62.3279C218.624 62.1002 218.738 61.9294 218.852 61.8156C219.079 61.7018 219.25 61.5879 219.364 61.4741C220.958 58.9696 222.78 56.8635 224.829 55.1559C226.878 53.4483 229.155 52.5945 231.66 52.5945C232.913 52.5945 234.677 52.6514 236.954 52.7653C239.231 52.8791 240.882 52.8791 241.907 52.7653C241.338 53.2206 240.541 54.1313 239.516 55.4974C238.605 56.8635 237.751 58.2865 236.954 59.7665C236.157 61.1326 235.531 62.214 235.076 63.0109C232.002 68.9307 229.212 74.7935 226.708 80.5994C224.203 86.4052 222.267 91.9835 220.901 97.334C220.56 98.4724 220.332 99.5539 220.218 100.578C220.104 101.489 220.047 102.4 220.047 103.311C220.047 106.27 221.015 107.75 222.95 107.75C224.772 107.75 227.049 106.612 229.782 104.335C233.767 101.148 237.239 97.1632 240.199 92.3819C243.273 87.6006 245.949 82.99 248.226 78.5502C248.681 77.7533 249.08 77.3549 249.421 77.3549C250.104 77.3549 250.446 78.3225 250.446 80.2578C250.446 81.1686 250.275 82.1931 249.934 83.3315C249.706 84.4699 249.307 85.5514 248.738 86.576C247.144 89.3082 245.038 92.6665 242.419 96.6509C239.915 100.635 237.068 104.563 233.88 108.433C230.692 112.19 227.334 115.378 223.804 117.996C220.389 120.614 216.973 121.924 213.558 121.924ZM179.572 107.067C179.914 107.181 180.426 107.238 181.109 107.238C183.273 107.238 185.607 106.327 188.111 104.506C190.616 102.684 193.121 100.351 195.626 97.5047C198.13 94.5449 200.351 91.585 202.286 88.6251C207.296 80.6563 210.996 74.6796 213.387 70.6952C215.778 66.7108 217.144 64.4339 217.486 63.8647C216.916 61.9294 215.892 60.5064 214.411 59.5957C213.045 58.685 211.394 58.2296 209.459 58.2296C206.954 58.2296 204.279 58.9127 201.432 60.2787C198.7 61.6448 196.366 63.2955 194.43 65.2308C191.47 68.1907 188.624 72.0044 185.891 76.6718C183.273 81.3393 181.109 85.9499 179.402 90.5035C177.808 95.0571 177.011 98.8708 177.011 101.945C177.011 104.791 177.865 106.498 179.572 107.067Z" fill="var(--fill-0, black)"/>
<path d="M266.782 122.265C261.545 122.265 256.991 120.614 253.12 117.313C249.363 114.012 247.484 108.718 247.484 101.432C247.484 96.0817 248.452 90.5035 250.387 84.6976C252.323 78.8917 255.055 73.4843 258.585 68.4753C262.228 63.4663 266.611 59.368 271.735 56.1805C276.858 52.9929 282.608 51.3992 288.984 51.3992C294.221 51.3992 298.263 52.4237 301.109 54.4729C304.069 56.4082 306.175 59.0265 307.428 62.3279C308.68 65.6293 309.306 69.1584 309.306 72.9151C309.306 75.7611 308.965 78.6641 308.282 81.6239C307.712 84.4699 306.859 87.316 305.72 90.162C307.655 92.4388 310.103 93.5772 313.064 93.5772C316.251 93.5772 319.212 92.3819 321.944 89.9912C323.538 88.6251 324.961 86.9175 326.214 84.8684C327.58 82.7054 328.775 80.7132 329.8 78.8917C330.141 78.2087 330.54 77.8672 330.995 77.8672C331.565 77.8672 331.849 78.6641 331.849 80.2578C331.849 81.2824 331.679 82.4777 331.337 83.8438C331.109 85.2099 330.54 86.576 329.629 87.9421C327.921 90.9019 326.157 93.1788 324.335 94.7725C322.513 96.2525 320.464 97.4478 318.187 98.3585C316.479 99.0416 314.657 99.3831 312.722 99.3831C309.193 99.3831 306.005 98.3016 303.158 96.1386C302.247 98.0739 301.109 100.066 299.743 102.115C296.441 107.693 292.171 112.475 286.934 116.459C281.697 120.33 274.98 122.265 266.782 122.265ZM273.272 115.776C275.89 115.776 278.395 114.922 280.786 113.215C283.291 111.393 285.568 109.173 287.617 106.555C289.667 103.937 291.431 101.205 292.911 98.3585C294.505 95.5125 295.815 93.008 296.839 90.845C292.968 87.5437 291.033 83.3885 291.033 78.3795C291.033 75.0781 291.944 72.5167 293.765 70.6952C295.587 68.8737 298.092 68.0769 301.28 68.3045C301.166 65.6862 300.483 63.5232 299.23 61.8156C297.978 60.108 295.929 59.2542 293.082 59.2542C290.464 59.2542 287.959 60.0511 285.568 61.6448C283.291 63.2386 281.128 65.2878 279.078 67.7923C277.143 70.1829 275.378 72.6874 273.784 75.3058C272.304 77.8103 271.052 80.0871 270.027 82.1362C268.547 85.0961 267.181 88.6821 265.928 92.8942C264.676 97.1063 264.05 101.034 264.05 104.677C264.05 107.864 264.676 110.54 265.928 112.702C267.294 114.752 269.742 115.776 273.272 115.776Z" fill="var(--fill-0, black)"/>
<path d="M17.5903 279.463C6.31886 279.463 0 272.803 0 260.338V188.106C0 175.64 6.31886 168.981 17.5903 168.981H56.8697C82.8282 168.981 96.8322 178.885 96.8322 196.815C96.8322 209.451 89.6594 216.623 76.6802 219.697C93.2458 223.624 100.589 233.87 100.589 247.531C100.589 269.73 86.5854 279.463 52.771 279.463H17.5903ZM33.6436 214.745H47.306C57.2113 214.745 62.1639 210.646 62.1639 202.962C62.1639 195.79 57.382 192.033 47.8184 192.033H33.6436V214.745ZM33.6436 256.41H49.3554C61.1392 256.41 66.0918 252.654 66.0918 243.774C66.0918 235.407 60.9684 231.991 49.0138 231.991H33.6436V256.41Z" fill="#278EFF"/>
<path d="M129.998 279.463C118.727 279.463 112.408 273.145 112.408 260.679V188.106C112.408 175.64 118.727 168.981 129.998 168.981H188.405C199.164 168.981 204.117 173.25 204.117 182.3V183.154C204.117 192.546 199.164 196.302 188.405 196.302H146.735V210.817H174.401C185.672 210.817 190.283 214.403 190.283 222.77V223.283C190.283 232.333 185.502 236.09 174.401 236.09H146.735V252.483H189.088C200.018 252.483 204.971 255.898 204.971 264.778V265.631C204.971 275.023 200.018 279.463 189.088 279.463H129.998Z" fill="#FB9679"/>
<path d="M233.9 279.463C222.629 279.463 216.31 273.145 216.31 260.679V184.008C216.31 173.25 221.433 168.127 230.826 168.127H235.608C245.513 168.127 250.637 173.25 250.637 184.008V249.58H283.768C294.527 249.58 299.651 254.532 299.651 263.924V264.436C299.651 274.34 294.527 279.463 283.768 279.463H233.9Z" fill="#8DB5B0"/>
<path d="M327.129 279.463C315.857 279.463 309.539 273.145 309.539 260.679V184.008C309.539 173.25 314.662 168.127 324.055 168.127H328.837C338.742 168.127 343.865 173.25 343.865 184.008V249.58H376.997C387.756 249.58 392.879 254.532 392.879 263.924V264.436C392.879 274.34 387.756 279.463 376.997 279.463H327.129Z" fill="#8DB5B0"/>
<path d="M413.868 281C404.475 281 395.082 273.487 396.277 270.413L431.8 177.519C433.507 172.054 438.118 168.127 453.659 168.127C469.2 168.127 473.128 172.054 474.836 177.519L511.895 270.071C513.091 273.145 503.869 280.829 493.622 280.829C486.278 280.829 478.764 276.902 473.982 264.778L470.908 256.752H435.728L432.483 265.119C428.384 276.902 421.211 281 413.868 281ZM441.363 231.991H464.76L453.147 200.059L441.363 231.991Z" fill="#F5B675"/>
</g>
</svg>
