<svg preserveAspectRatio="none" width="100%" height="100%" overflow="visible" style="display: block;" viewBox="0 0 181.594 166.899" fill="none" xmlns="http://www.w3.org/2000/svg">
<path id="Vector" d="M151.058 161.583C136.524 153.849 122.124 143.849 113.724 135.716C107.324 129.583 106.524 128.116 106.924 124.249C107.458 117.849 111.458 116.116 124.391 116.783C132.791 117.183 134.658 116.916 134.658 115.316C134.658 112.383 123.858 90.116 118.124 81.0493C104.791 60.3827 80.1243 41.716 65.9909 41.716C61.7243 41.716 61.8576 42.2493 66.6576 51.8493C75.8576 70.3827 76.2576 83.316 67.7243 90.3827C64.1243 93.4493 62.5243 93.8493 57.3243 93.4493C49.7243 92.6493 41.4576 87.316 36.5243 79.9827C33.5909 75.5827 32.6576 72.3827 32.2576 65.4493C31.5909 54.3827 33.5909 48.116 40.1243 41.0493L45.3243 35.4493L36.2576 26.7827C30.9243 21.8493 21.3243 14.916 13.3243 10.2493C-0.14241 2.64934 -3.34241 -0.683991 3.45759 0.116008C13.3243 1.44934 37.7243 15.8493 47.9909 26.2493L53.8576 32.3827H63.5909C75.4576 32.3827 83.4576 35.1827 94.9243 43.4493C111.591 55.316 123.724 70.6493 135.991 95.0493C139.858 102.783 143.191 109.316 143.591 109.716C143.858 109.983 145.591 108.516 147.324 106.249C156.924 93.9827 175.324 96.3827 180.124 110.649C184.924 125.316 177.191 160.783 168.124 165.716C163.991 167.849 162.258 167.449 151.058 161.583ZM170.524 145.183C174.391 132.516 174.391 115.449 170.524 110.516C167.591 106.783 161.991 105.849 157.324 108.383C155.991 109.049 152.391 113.583 149.458 118.383C146.391 123.183 142.924 127.583 141.858 127.983C140.124 128.649 130.658 127.183 122.658 125.049C121.591 124.649 119.724 125.049 118.658 125.716C117.058 126.783 117.458 127.716 121.324 131.716C127.324 137.849 147.058 151.449 156.258 155.716C162.924 158.783 163.458 158.916 165.591 156.649C166.791 155.449 169.058 150.249 170.524 145.183ZM61.4576 83.0493C64.7909 81.1827 64.7909 73.8493 61.4576 64.116C58.6576 56.116 52.6576 45.716 50.7909 45.716C50.1243 45.716 48.1243 47.4493 46.2576 49.5827C37.9909 59.4493 41.7243 76.2493 53.5909 82.116C58.9243 84.7827 58.2576 84.6493 61.4576 83.0493Z" fill="var(--fill-0, #FFC0CB)"/>
</svg>
