<svg preserveAspectRatio="none" width="100%" height="100%" overflow="visible" style="display: block;" viewBox="0 0 126 98" fill="none" xmlns="http://www.w3.org/2000/svg">
<path id="Vector" d="M47.5268 96.7335C46.265 95.17 44.162 88.6029 41.0076 76.5112L38.6944 67.9636L21.7656 61.5008C2.31325 54.0999 0 52.849 0 50.0346C0 46.6989 4.4162 44.8227 18.8214 42.2167C26.3921 40.8616 33.0164 39.5065 33.6473 39.0895C35.0142 38.2556 35.0142 29.6038 33.5421 14.9061C32.1752 1.14663 32.5958 0 39.2201 0C41.5333 0 57.7261 3.96107 75.0755 8.86029C92.53 13.6553 109.985 18.346 114.085 19.2842C122.813 21.2647 126.388 23.3495 125.967 26.0597C125.757 27.2063 121.235 31.8971 115.768 36.692C110.3 41.487 98.7337 52.849 90.1116 62.022C63.7195 89.958 61.5114 92.147 57.9364 95.17C54.3614 98.1929 49.4194 98.9226 47.5268 96.7335ZM66.9791 77.4494C73.8137 70.1527 83.9079 59.5203 89.3756 53.8914C94.8432 48.2625 99.4697 43.1548 99.68 42.6336C100.101 41.6955 94.8432 43.9887 63.2989 58.5822C49.4194 65.045 45.2135 67.4425 45.529 68.6933C49.6297 83.1825 52.2584 90.6877 53.3099 90.6877C53.9408 90.6877 60.0393 84.7461 66.9791 77.4494ZM76.6527 46.1778C103.676 32.731 107.882 30.2292 101.783 30.9589C81.3843 33.4606 48.3679 40.2361 37.8532 44.093C34.0679 45.4481 27.759 47.2201 23.6582 47.9498C19.6626 48.7837 15.8773 49.7219 15.3516 50.1388C14.8258 50.5558 18.4008 52.7448 23.2376 54.8296C27.9693 57.0186 33.8576 59.833 36.1708 61.0839L40.3767 63.2729L45.6341 61.1881C48.5782 59.9373 62.5629 53.266 76.6527 46.1778ZM51.4172 34.3988C58.8827 32.5225 98.3131 25.0173 101.257 25.0173C103.991 24.9131 98.8388 23.0368 87.2726 19.8054C80.6483 18.0333 67.5048 13.968 58.0415 10.8408C48.6834 7.71367 40.4819 5.21194 39.851 5.21194C38.6944 5.21194 38.7995 8.86029 40.587 29.4996C40.9025 33.3564 41.6385 36.4836 42.2694 36.4836C42.7951 36.4836 47.001 35.5454 51.4172 34.3988Z" fill="var(--fill-0, #FB9679)"/>
</svg>
