<svg preserveAspectRatio="xMidYMid meet" width="217" height="217" overflow="visible" style="display: block;" viewBox="0 0 217 217" fill="none" xmlns="http://www.w3.org/2000/svg">
<g id="36 2">
<path id="Vector" d="M164.257 140.249C164.003 136.794 164.054 133.329 163.746 129.876C163.365 109.729 162.661 89.6004 161.835 69.4584C161.923 67.5553 161.063 65.5752 159.182 65.1423C155.588 64.5998 151.943 65.33 148.332 65.3213C138.694 65.2465 129.043 64.5184 119.409 64.8776C108.213 65.9756 96.9988 67.3004 85.731 66.9911C76.3762 66.7286 67.2361 68.3778 57.8531 68.2161C54.5644 68.3007 51.304 68.7814 48.0371 69.134C45.6935 69.5528 42.8649 68.9398 40.8229 70.2917C40.773 70.3351 40.7252 70.3807 40.6786 70.4284C35.6984 70.2212 39.0695 90.6864 39.2496 93.6778C39.8062 98.5983 39.9549 103.551 40.3097 108.48C40.939 117.606 41.6573 126.738 41.7397 135.888C42.1737 140.356 40.1773 147.856 43.7101 151.133C44.2139 151.383 44.7773 151.489 45.3376 151.438C46.4226 152.261 47.9264 151.98 49.2121 152.102C66.9421 152.904 84.416 149.465 102.052 148.492C107.657 147.819 113.7 149.02 119.37 149.143C123.735 149.193 128.095 148.968 132.459 148.854C137.101 148.983 141.744 148.661 146.324 147.894C150.2 147.577 154.106 147.927 157.979 147.959C158.594 148.024 159.216 147.952 159.8 147.748C160.383 147.544 160.915 147.213 161.356 146.78C161.797 146.346 162.137 145.821 162.351 145.241C162.565 144.66 162.648 144.04 162.595 143.424C163.153 143.116 163.608 142.651 163.903 142.087C164.199 141.522 164.322 140.883 164.257 140.249ZM64.4249 74.6925C74.8007 73.9482 85.0746 72.2252 95.4613 71.7055C101.058 71.4635 106.608 72.3217 112.17 72.7601C120.861 73.2144 129.574 72.9054 138.21 71.8367C139.862 71.7034 141.519 71.6599 143.175 71.7065C136.529 76.2158 130.203 81.1341 124.016 86.2455C118.99 90.043 114.377 94.3505 108.967 97.638C105.899 99.808 102.486 101.398 99.2827 103.321C93.9304 100.524 88.4327 97.8192 83.1162 94.893C75.9498 91.8387 69.7316 87.0984 62.971 83.3052C58.6386 80.7706 54.048 78.707 49.8816 75.899C54.7228 75.4661 59.5565 74.7565 64.4249 74.6925ZM46.8815 142.513C46.3629 138.991 45.7835 135.713 45.5459 131.889C44.3752 123.949 45.458 115.969 45.1889 108.005C44.8526 102.381 44.5379 96.7527 44.1289 91.1324C43.7567 86.7284 43.2772 82.3439 43.326 77.9138C43.2534 77.3544 43.2486 76.7883 43.3119 76.2277C43.4464 76.2277 43.582 76.2277 43.7177 76.2277C43.8158 76.3344 43.9249 76.4304 44.0432 76.5142C51.8617 81.6864 60.1174 86.1598 67.5247 91.9483C69.6405 93.2351 71.7685 94.5009 73.9089 95.7458C73.7218 95.9899 73.5685 96.2581 73.4532 96.5433C66.4387 110.2 57.2606 122.61 50.8103 136.56C50.2559 138.064 48.3213 140.299 46.8815 142.513ZM139.487 141.554C135.199 140.928 130.862 140.703 126.531 140.883C117.804 141.547 109.137 142.886 100.436 143.846C94.2949 144.31 87.8338 143.373 81.6514 144.033C71.0781 145.457 60.3854 144.901 49.7774 145.335C49.9485 145.02 50.1589 144.728 50.4034 144.467C56.0346 137.232 60.2335 129.034 65.0987 121.293C69.3102 115.366 73.076 109.134 76.3653 102.65C77.1847 101.258 77.771 99.7411 78.1013 98.1599C84.5213 101.799 91.0465 105.245 97.7149 108.421C100.064 109.686 102.149 108.876 102.489 107.329C102.662 107.184 102.846 107.052 103.039 106.934C107.576 103.83 112.211 100.879 116.943 98.0785C120.32 102.828 124.712 106.841 128.31 111.434C136.614 121.804 146.097 131.056 155.066 140.837C149.89 141.355 144.689 141.594 139.487 141.554ZM159.114 139.478C155.549 136.014 152.192 132.341 149.062 128.479C139.84 117.412 130.816 106.167 121.286 95.3682C125.536 92.5648 129.594 89.4805 133.432 86.136C139.959 81.4705 146.802 77.2607 153.362 72.6407C154.512 72.7926 155.659 72.9489 156.805 73.1019C156.63 84.8025 158.378 96.501 158.558 108.201C160.063 118.561 160.249 129.07 159.114 139.478Z" fill="var(--fill-0, #8DB5B0)"/>
</g>
</svg>
