<svg width="1473" height="877" viewBox="0 0 1473 877" fill="none" xmlns="http://www.w3.org/2000/svg">
<g clip-path="url(#clip0_8_105)">
<path d="M402.61 306.193C402.609 306.201 402.185 316.697 399.758 323.227C397.651 328.895 393.692 330.614 391.373 331.773C386.379 334.27 266.591 363.589 249.123 367.338C231.66 371.086 119.657 391.509 118.22 391.775C116.805 392.038 102.651 394.372 96.1691 391.775C89.6884 389.178 82.2593 375.736 81.5637 374.573C81.0571 373.727 72.2084 357.791 61.1711 337.895C78.6754 334.955 99.2629 331.547 121.456 327.921C184.673 317.591 260.891 305.489 315.98 297.379C341.786 293.58 372.215 290.446 403.682 287.875L402.61 306.193ZM1073.99 321.181C1090.95 323.971 1107.67 326.749 1123.64 329.424C1156.71 334.964 1186.52 340.06 1208.45 343.897C1214.45 344.949 1219.87 345.906 1224.59 346.751C1219.33 363.683 1215.37 376.548 1215.13 377.61C1214.77 379.252 1212.63 387.892 1208.26 390.168C1203.88 392.444 1197.28 388.357 1195.46 387.451C1193.42 386.437 1134.25 353.591 1073.99 321.181ZM626.315 128.819C809.764 128.819 968.559 162.618 1081.49 196.421C1137.96 213.321 1182.94 230.218 1213.8 242.883C1229.23 249.215 1241.12 254.489 1249.15 258.176C1250.1 258.614 1251.01 259.031 1251.85 259.424C1249.22 267.836 1236.38 308.847 1226.61 340.237C1221.68 339.354 1215.98 338.344 1209.61 337.229C1187.67 333.389 1157.84 328.29 1124.76 322.748C1102.68 319.05 1079.16 315.154 1055.56 311.302C1013.59 288.89 973.897 268.308 955.77 260.661C909.13 240.988 868.142 238.889 859.095 237.501C850.051 236.114 407.949 226.144 407.298 226.129L404.081 281.052C372.161 283.647 341.227 286.819 314.994 290.682C259.854 298.8 183.594 310.909 120.364 321.241C97.1583 325.033 75.7027 328.586 57.6867 331.615C39.0302 297.978 16.2383 256.841 16.1467 256.676C16.1545 256.672 16.2549 256.622 16.4455 256.526C14.4767 257.304 12.2641 257.921 10.7228 257.564C9.74207 257.338 8.91008 256.847 8.22088 256.152C8.66692 255.933 9.24158 255.651 9.94256 255.312C11.8662 254.382 14.7446 253.013 18.5422 251.27C26.1383 247.781 37.4157 242.79 52.1027 236.797C81.4788 224.81 124.494 208.815 178.987 192.817C287.978 160.82 442.847 128.819 626.315 128.819ZM633.75 6.58887C989.858 6.589 1224.08 148.254 1227.72 150.684C1231.35 153.104 1240.6 162.979 1243.34 166.719C1246.08 170.459 1250.59 181.197 1252.33 186.443C1254.08 191.69 1257.84 213.682 1259.18 221.594C1260.31 228.22 1262.12 252.943 1261.86 256.438C1261.86 256.517 1261.85 256.593 1261.84 256.668C1261.64 256.569 1261.42 256.461 1261.19 256.351C1259.11 255.349 1256.03 253.886 1251.97 252.024C1243.87 248.302 1231.89 242.99 1216.37 236.62C1185.33 223.881 1140.14 206.907 1083.43 189.936C970.04 155.995 810.577 122.05 626.315 122.05C442.07 122.05 286.55 154.184 177.08 186.322C122.343 202.392 79.1096 218.465 49.5451 230.529C34.7631 236.561 23.3965 241.592 15.717 245.118C11.8774 246.881 8.95817 248.269 6.99529 249.218C6.51487 249.45 6.09222 249.658 5.72674 249.837C5.41703 246.873 5.79427 243.462 6.77947 240.327C9.06462 233.057 24.8692 184.416 27.3918 179.361C29.9134 174.318 39.6861 161.077 42.8429 158.867C46.0148 156.649 277.643 6.58901 633.75 6.58887Z" fill="#00275C"/>
<path d="M1233.19 394.748C1233.19 394.748 1212.13 412.825 1265.7 444.472C1319.27 476.12 1318.88 508.8 1318.88 508.8C1329.9 538.851 1311.88 555.791 1294.63 556.032C1277.39 556.272 1269.45 546.038 1269.88 536.216C1270.31 526.394 1287.32 520.247 1297.68 520.703C1308.05 521.158 1334.87 538.117 1331.22 564.531C1327.57 590.945 1300.44 603.586 1290.61 603.154C1280.79 602.723 1269.04 600.711 1269.89 592.902C1270.73 585.094 1281.65 583.079 1292.02 582.537C1302.38 581.994 1327.39 584.589 1330.42 616.739C1333.46 648.888 1311.41 657.307 1299.45 660.228C1287.48 663.15 1279.71 660.36 1279.13 651.945C1278.55 643.53 1288.24 635.611 1301.63 633.206C1315.02 630.801 1335.47 637.14 1339.47 668.879C1343.47 700.618 1313.82 714.054 1308.82 716.329C1303.82 718.604 1287.38 722.28 1286.45 709.451C1285.51 696.622 1293.58 692.532 1308.97 690.214C1324.35 687.897 1336.57 700.768 1338 725.002C1339.43 749.236 1325.87 765.873 1314.71 773.274C1303.54 780.674 1292.96 774.768 1291.66 770.312C1290.36 765.856 1290.67 758.931 1297.27 755.275C1303.87 751.62 1351.42 734.48 1359.04 773.769C1366.65 813.058 1325.03 840.753 1316.51 833.486C1307.98 826.218 1314.11 809.708 1325.4 799.365C1336.69 789.023 1364.41 797.133 1371.48 804.336C1382.15 825.854 1397.09 868.244 1371.48 865.658C1339.47 862.426 1369.24 735.751 1443.58 773.769C1488.01 796.493 1430.74 799.446 1414.49 785.923C1395.73 770.312 1377.85 729.701 1420.95 716.329C1464.05 702.956 1475.49 737.156 1434.96 740.668C1394.42 744.18 1361.69 668.512 1429.57 660.228C1497.45 651.945 1416.06 727.555 1387.55 660.228C1359.04 592.902 1457.59 600.271 1443.58 616.739C1429.57 633.206 1368.15 644.371 1387.55 582.537C1406.94 520.703 1452.2 538.407 1443.58 556.032C1434.96 573.657 1383.92 591.361 1371.48 556.032C1359.04 520.703 1371.39 496.077 1396.17 488.534C1420.95 480.992 1471.06 506.866 1396.17 520.703C1321.28 534.539 1354.15 433.467 1387.55 438.97C1420.95 444.472 1351.88 518.704 1330.42 464.83C1308.97 410.955 1383.92 389.405 1371.48 414.187C1359.04 438.97 1284.38 464.83 1301.63 401.257C1318.88 337.685 1350.61 356.002 1338 385.095C1325.4 414.187 1271.81 442.114 1279.13 394.748C1286.45 347.383 1299.19 269.803 1250.71 264.415" stroke="#1D477F" stroke-width="26" stroke-miterlimit="10" stroke-linecap="round"/>
<path d="M628.642 556.365C656.345 556.365 815.07 558.294 963.159 553.742C1101.9 549.477 1231.29 538.121 1234.8 537.165C1238.68 536.107 1246.15 534.762 1249.62 528.576C1252.63 523.229 1251.92 512.998 1251.92 511.467C1251.92 508.175 1242.46 374.404 1242.04 368.489C1241.78 364.774 1241.11 357.303 1237.29 352.657C1234.36 349.078 1228.81 348.266 1226.23 347.402C1220.29 345.422 1031.14 314.046 924.074 298.231C817 282.416 628.633 278.439 628.633 278.439C628.633 278.439 440.267 282.416 333.192 298.231C226.118 314.046 36.9729 345.431 31.0412 347.402C28.4604 348.266 22.9095 349.069 19.9733 352.657C16.1655 357.303 15.497 364.774 15.2263 368.489C14.8032 374.404 5.34299 508.167 5.34299 511.467C5.34299 512.998 4.64913 523.229 7.64458 528.576C11.1139 534.762 18.5856 536.099 22.4695 537.165C25.9727 538.121 155.369 549.485 294.108 553.742C442.196 558.285 600.921 556.365 628.625 556.365H628.642Z" fill="#00275C"/>
<path d="M621.368 276.079C621.46 276.081 621.597 276.084 621.778 276.088C622.142 276.096 622.685 276.108 623.397 276.125C624.821 276.158 626.925 276.209 629.642 276.279C635.076 276.42 642.962 276.639 652.766 276.952C672.374 277.579 699.65 278.582 730.319 280.083C791.692 283.087 866.519 288.086 920.684 296.061C974.991 304.056 1053.02 316.73 1118.24 327.656C1150.84 333.119 1180.24 338.144 1201.85 341.927C1212.66 343.818 1221.52 345.399 1227.86 346.567C1229.43 346.857 1230.84 347.121 1232.09 347.357C1235.86 352.007 1236.53 359.431 1236.79 363.13C1237.21 369.049 1246.67 502.816 1246.67 506.107C1246.67 507.639 1247.38 517.869 1244.37 523.217C1240.9 529.402 1233.43 530.748 1229.55 531.806C1226.03 532.763 1096.64 544.117 957.909 548.382C809.821 552.934 651.095 551.005 623.392 551.005H623.375C595.671 551.005 436.946 552.926 288.858 548.382C150.12 544.126 20.7249 532.762 17.2199 531.806C13.3359 530.739 5.86394 529.402 2.39467 523.217C-0.600534 517.869 0.0928773 507.639 0.0929151 506.107C0.0929151 502.807 9.55335 369.048 9.9767 363.13C10.2475 359.415 10.9161 351.943 14.7238 347.298C15.3157 346.575 16.0149 345.966 16.7736 345.445C17.2553 345.342 17.8727 345.215 18.6261 345.067C20.3643 344.726 22.7689 344.277 25.7814 343.732C31.8035 342.644 40.2098 341.18 50.4777 339.427C71.0109 335.921 98.9622 331.267 130.125 326.175C192.455 315.99 267.605 304.057 321.92 296.061C376.085 288.086 450.913 283.087 512.286 280.083C542.954 278.582 570.23 277.579 589.838 276.952C599.642 276.639 607.528 276.42 612.962 276.279C615.679 276.209 617.783 276.158 619.207 276.125C619.919 276.108 620.462 276.096 620.825 276.088C621.007 276.084 621.144 276.081 621.235 276.079C621.261 276.079 621.283 276.078 621.302 276.077C621.32 276.078 621.343 276.079 621.368 276.079ZM626.548 128.968C809.997 128.968 968.792 162.766 1081.73 196.568C1138.19 213.468 1183.18 230.366 1214.03 243.031C1227.26 248.459 1237.88 253.11 1245.71 256.649C1241.33 270.62 1229.12 309.664 1220.22 338.303C1215.26 337.413 1209.48 336.39 1203.02 335.258C1181.38 331.471 1151.97 326.444 1119.35 320.979C1101.42 317.974 1082.51 314.838 1063.38 311.701C1016.87 286.733 970.746 262.62 950.78 254.198C904.141 234.525 863.153 232.426 854.106 231.038C845.043 229.65 402.308 219.665 402.308 219.665L398.733 280.708C370.842 283.103 344.038 285.962 320.934 289.363C266.567 297.368 191.376 309.306 129.033 319.493C101.232 324.036 75.9803 328.231 56.2628 331.575C40.3251 302.846 19.7866 265.788 13.2511 253.992C14.798 253.26 16.6416 252.398 18.7755 251.418C26.3716 247.93 37.649 242.938 52.3361 236.945C81.7121 224.958 124.728 208.964 179.22 192.966C288.211 160.968 443.081 128.968 626.548 128.968ZM628.761 0.125977C984.861 0.126006 1219.08 141.786 1222.73 144.221C1226.36 146.641 1235.61 156.516 1238.35 160.256C1241.09 163.996 1245.59 174.734 1247.34 179.98C1249.09 185.227 1252.85 207.219 1254.19 215.131C1255.32 221.757 1257.13 246.481 1256.87 249.976C1256.72 252.157 1255.98 253.062 1255.15 253.533C1254.24 253.107 1253.25 252.652 1252.21 252.172C1244.1 248.449 1232.12 243.138 1216.6 236.769C1185.57 224.03 1140.37 207.055 1083.67 190.084C970.273 156.143 810.811 122.198 626.548 122.198C442.303 122.198 286.783 154.333 177.314 186.471C122.577 202.54 79.3429 218.614 49.7785 230.678C34.9964 236.71 23.6298 241.74 15.9503 245.267C12.1107 247.03 9.19146 248.417 7.22866 249.366C6.2476 249.841 5.50444 250.206 5.00502 250.453C4.82665 250.541 4.67868 250.615 4.56264 250.673C0.35219 248.507 -0.313663 240.555 1.7892 233.864C4.07387 226.596 19.8803 177.951 22.4025 172.897C24.9241 167.854 34.6967 154.613 37.8537 152.403C41.0287 150.183 272.656 0.126193 628.761 0.125977Z" fill="#1D477F"/>
<path d="M138.917 414.429C136.387 443.079 137.472 490.601 169.755 502.2C185.011 507.677 200.689 504.819 215.322 498.472C233.986 490.37 235.319 475.21 243.421 473.151C250.829 471.259 232.628 504.771 203.339 514.853C180.971 522.557 157.565 522.98 135.141 516.41C100.759 506.336 78.8462 476.296 78.3193 440.628C77.521 386.217 117.611 355.778 169.117 356.672C189.13 357.016 209.055 360.281 224.981 372.303C240.084 383.703 248.051 402.191 243.094 420.567C239.765 432.901 227.256 439.223 215.266 438.904C204.369 438.617 191.708 430.243 190.622 417.694C189.361 403.053 188.667 363.33 166.442 363.554C144.689 363.769 140.482 396.579 138.909 414.445L138.917 414.429Z" fill="#FFF6E8"/>
<path d="M318.605 517.559L255.686 517.717C254.47 517.717 252.482 516.546 252.639 515.893C252.797 515.24 254.118 513.304 255.048 513.214C261.014 512.628 268.234 505.784 268.241 497.477L268.256 426.723C268.256 413.29 255.611 412.667 253.382 411.684C240.257 405.89 287.296 408.412 286.395 408.359C297.292 408.967 306.087 416.974 306.185 427.916L306.8 498.865C306.845 503.743 310.815 512.306 319.07 513.071C320.046 513.161 319.798 517.552 318.605 517.559Z" fill="#FFF6E8"/>
<path d="M288.827 398.228C275.213 400.156 264.564 391.534 263.611 379.414C262.658 367.256 271.634 356.975 284.707 356.659C295.581 356.397 305.067 364.547 306.373 374.716C307.791 385.747 300.887 396.517 288.834 398.228H288.827Z" fill="#FFF6E8"/>
<path d="M397.424 505.483C378.319 520.729 342.257 528.938 325.783 510.081C316.296 499.225 318.272 480.867 328.837 471.555C345.104 457.221 373.754 450.515 394.503 444.996C395.416 433.999 392.569 407.159 379.024 407.466C368.036 407.715 364.533 418.736 364.201 428.688C363.794 440.523 354.79 449.843 343.095 449.42C334.306 449.096 327.7 443.112 327.144 434.53C325.102 403.042 383.049 395.73 412.496 407.325C424.447 412.03 434.664 422.737 434.822 436.464L435.453 493.009C435.469 494.602 437.162 497.466 438.241 498.487C439.511 499.682 444.242 499.839 445.611 498.694L452.5 492.934L454.641 491.142C455.23 490.652 457.986 492.926 457.446 494.428C453.222 506.114 436.141 520.862 420.157 519.866C409.591 519.211 401.831 515.069 397.441 505.475L397.424 505.483ZM375.24 505.608C382.701 505.89 389.1 503.226 394.71 499.151L394.644 451.105C375.937 457.769 355.503 474.816 361.736 495.988C363.429 501.732 368.625 505.35 375.248 505.599L375.24 505.608Z" fill="#FFF6E8"/>
<path d="M575.918 459.056C576.955 497.142 548.115 522.364 511.29 520.953C493.91 520.281 477.17 514.496 465.958 500.786C450.33 481.68 448.147 454.964 459.169 433.095C473.087 405.474 505.961 397.199 534.03 404.802C559.194 411.624 575.213 433.02 575.918 459.056ZM516.734 512.197C521.714 515.999 528.868 515.127 533.491 512.098C548.098 502.52 537.441 465.098 533.009 450.258C529.258 437.709 525.366 425.7 517.539 415.359C511.713 407.665 500.915 405.225 493.778 412.736C481.353 425.799 496.06 471.347 501.695 487.946C504.758 496.968 508.775 506.13 516.742 512.206L516.734 512.197Z" fill="#FFF6E8"/>
<path d="M602.331 512.447C611.356 513.675 619.451 504.512 619.443 495.106L619.382 377.655C619.382 368.461 611.89 361.687 603.956 360.962C603.025 360.878 601.24 359.696 600.889 359.001C600.416 358.055 602.651 355.713 604.459 355.721L707.438 356.247C720.736 356.316 733.896 361.046 744.157 367.981C754.922 375.259 760.026 386.314 759.637 398.566C759.271 410.201 752.641 421.538 741.06 427.191L728.128 433.5C747.049 441.122 764.603 451.024 763.558 476.414C762.971 490.666 755.38 502.102 743.188 508.365C732.835 513.69 722.17 517.68 708.674 517.688L602.331 517.78V512.439V512.447ZM708.331 404.784C709.811 393.34 708.804 381.645 702.014 372.162C696.498 364.456 687.396 362.061 678.417 361.961L667.377 361.832L667.125 430.761C687.358 432.928 705.493 426.786 708.331 404.784ZM708.918 456.319C702.075 437.864 685.275 435.125 667.377 436.445L667.392 512.035C674.61 512.195 680.454 512.096 686.9 511.31C714.358 507.938 714.953 472.577 708.926 456.327L708.918 456.319Z" fill="#ED89A3"/>
<path d="M822.696 494.061C833.597 514.349 863.832 512.121 881.874 497.124C886.512 493.269 886.555 485.689 894.411 484.476C884.714 517.051 847.561 525.311 818.058 519.09C787.471 512.637 769.454 487.203 769.703 456.616C769.918 430.004 783.797 406.833 810.065 398.745C824.511 394.297 840.231 393.488 855.124 397.162C882.666 403.95 897.603 426.054 899.031 453.94L814.505 454.129C814.367 468.033 816.182 481.938 822.696 494.069V494.061ZM855.417 449.638C856.312 433.566 852.87 398.409 833.984 400.251C818.695 401.739 816.157 427.19 815.038 438.711C814.694 442.29 814.246 446.824 816.234 449.474L855.408 449.647L855.417 449.638Z" fill="#02A256"/>
<path d="M963.741 518.453L891.977 518.487C891.537 517.344 891.477 515.449 891.706 514.053C899.533 513.283 907.123 511.277 909.256 502.663C909.806 500.438 910.525 498.043 910.516 495.496L910.398 376.321C910.398 370.516 907.157 365.304 902.452 363.07C898.873 361.378 895.581 361.31 891.647 361.082L891.672 356.428L925.519 356.563C929.614 356.58 933.803 357.951 937.416 359.711C945.421 363.612 948.306 373.698 948.315 382.118L948.425 497.121C948.425 501.453 950.075 505.786 952.326 508.891C954.966 512.546 959.104 513.477 963.58 513.917C963.935 515.017 963.969 516.862 963.749 518.461L963.741 518.453Z" fill="#ADDAE2"/>
<path d="M1042.39 518.453L970.63 518.487C970.19 517.344 970.131 515.449 970.36 514.053C978.187 513.283 985.777 511.277 987.909 502.663C988.459 500.438 989.179 498.043 989.17 495.496L989.052 376.321C989.052 370.516 985.811 365.304 981.106 363.07C977.527 361.378 974.235 361.31 970.3 361.082L970.326 356.428L1004.17 356.563C1008.27 356.58 1012.46 357.951 1016.07 359.711C1024.07 363.612 1026.96 373.698 1026.97 382.118L1027.08 497.121C1027.08 501.453 1028.73 505.786 1030.98 508.891C1033.62 512.546 1037.76 513.477 1042.23 513.917C1042.59 515.017 1042.62 516.862 1042.4 518.461L1042.39 518.453Z" fill="#F14A00"/>
<path d="M1121.64 505.483C1102.53 520.729 1066.47 528.938 1050 510.081C1040.51 499.225 1042.49 480.867 1053.05 471.555C1069.32 457.221 1097.97 450.515 1118.72 444.996C1119.63 433.999 1116.78 407.159 1103.24 407.466C1092.25 407.715 1088.75 418.736 1088.42 428.688C1088.01 440.523 1079 449.843 1067.31 449.42C1058.52 449.096 1051.91 443.112 1051.36 434.53C1049.32 403.042 1107.26 395.73 1136.71 407.325C1148.66 412.03 1158.88 422.737 1159.04 436.464L1159.67 493.009C1159.68 494.602 1161.38 497.466 1162.46 498.487C1163.73 499.682 1168.46 499.839 1169.83 498.694L1176.71 492.934L1178.86 491.142C1179.45 490.652 1182.2 492.926 1181.66 494.428C1177.44 506.114 1160.36 520.862 1144.37 519.866C1133.81 519.211 1126.05 515.069 1121.66 505.475L1121.64 505.483ZM1099.45 505.608C1106.92 505.89 1113.31 503.226 1118.93 499.151L1118.86 451.105C1100.15 457.769 1079.72 474.816 1085.95 495.988C1087.64 501.732 1092.84 505.35 1099.46 505.599L1099.45 505.608Z" fill="#F0A900"/>
<mask id="path-15-inside-1_8_105" fill="white">
<path d="M1247.36 588.535C1247.35 588.537 1247.35 588.532 1247.34 588.528C1247.35 588.522 1247.35 588.518 1247.35 588.518C1247.35 588.518 1247.36 588.533 1247.36 588.535Z"/>
</mask>
<path d="M1247.36 588.535C1247.35 588.537 1247.35 588.532 1247.34 588.528C1247.35 588.522 1247.35 588.518 1247.35 588.518C1247.35 588.518 1247.36 588.533 1247.36 588.535Z" fill="#FFEFC9"/>
<path d="M1210.14 708.252L1210.48 708.327V708.327L1210.14 708.252ZM1203.27 720.809L1203.43 721.119V721.119L1203.27 720.809ZM1190.47 718.093L1190.31 718.406L1190.31 718.406L1190.47 718.093ZM950.781 591.302L950.917 590.98V590.98L950.781 591.302ZM854.106 568.142L854.053 568.488V568.488L854.106 568.142ZM402.309 556.77L402.317 556.42L401.979 556.412L401.96 556.749L402.309 556.77ZM397.621 636.834L397.272 636.814L397.271 636.82L397.621 636.834ZM394.77 653.868L394.441 653.746V653.746L394.77 653.868ZM386.385 662.415L386.228 662.102V662.102L386.385 662.415ZM244.134 697.979L244.208 698.321V698.321L244.134 697.979ZM113.231 722.417L113.295 722.761V722.761L113.231 722.417ZM91.1805 722.417L91.0503 722.742L91.0503 722.742L91.1805 722.417ZM76.5749 705.214L76.8752 705.034L76.8752 705.034L76.5749 705.214ZM11.1577 587.317L11.0009 587.004L10.6748 587.167L10.8516 587.486L11.1577 587.317ZM1247.34 588.528L1247.01 588.424C1246.81 589.053 1237.69 618.168 1228.53 647.533C1223.95 662.216 1219.36 676.962 1215.87 688.241C1214.12 693.88 1212.65 698.654 1211.6 702.119C1210.54 705.573 1209.89 707.75 1209.8 708.176L1210.14 708.252L1210.48 708.327C1210.57 707.937 1211.21 705.8 1212.27 702.324C1213.32 698.859 1214.79 694.087 1216.54 688.448C1220.03 677.169 1224.62 662.424 1229.2 647.742C1238.36 618.377 1247.48 589.262 1247.68 588.633L1247.34 588.528ZM1210.14 708.252L1209.8 708.176C1209.62 708.987 1209 711.534 1207.89 714.156C1207.33 715.466 1206.65 716.786 1205.85 717.915C1205.05 719.045 1204.14 719.964 1203.11 720.498L1203.27 720.809L1203.43 721.119C1204.59 720.515 1205.59 719.501 1206.42 718.32C1207.26 717.137 1207.96 715.768 1208.53 714.429C1209.67 711.752 1210.3 709.158 1210.48 708.327L1210.14 708.252ZM1203.27 720.809L1203.11 720.498C1201.06 721.565 1198.43 721.157 1196.03 720.313C1193.63 719.473 1191.56 718.247 1190.62 717.779L1190.47 718.093L1190.31 718.406C1191.19 718.844 1193.34 720.114 1195.8 720.974C1198.24 721.831 1201.11 722.328 1203.43 721.119L1203.27 720.809ZM1190.47 718.093L1190.62 717.779C1188.81 716.873 1140.56 690.103 1086.91 661.085C1033.29 632.078 974.258 600.825 950.917 590.98L950.781 591.302L950.645 591.625C973.947 601.453 1032.94 632.686 1086.58 661.701C1140.2 690.705 1188.48 717.493 1190.31 718.406L1190.47 718.093ZM950.781 591.302L950.917 590.98C904.225 571.285 863.174 569.179 854.159 567.796L854.106 568.142L854.053 568.488C863.131 569.881 904.057 571.973 950.645 591.625L950.781 591.302ZM854.106 568.142L854.159 567.796C853.569 567.706 851.281 567.585 847.556 567.436C843.814 567.287 838.593 567.108 832.107 566.906C819.134 566.5 801.096 565.996 779.706 565.43C736.926 564.299 680.733 562.921 624.824 561.586C568.914 560.251 513.288 558.959 471.638 558.001C450.814 557.523 433.483 557.127 421.359 556.851C415.297 556.714 410.536 556.606 407.291 556.532C405.669 556.495 404.425 556.467 403.587 556.448C403.168 556.439 402.851 556.432 402.638 556.427C402.531 556.424 402.451 556.423 402.398 556.421C402.371 556.421 402.351 556.42 402.337 556.42C402.33 556.42 402.325 556.42 402.322 556.42C402.319 556.42 402.317 556.42 402.309 556.77C402.301 557.119 402.303 557.119 402.306 557.12C402.31 557.12 402.315 557.12 402.321 557.12C402.335 557.12 402.355 557.121 402.382 557.121C402.435 557.122 402.516 557.124 402.622 557.127C402.835 557.131 403.152 557.139 403.572 557.148C404.409 557.167 405.653 557.195 407.276 557.232C410.521 557.305 415.281 557.413 421.343 557.551C433.467 557.827 450.798 558.222 471.622 558.701C513.272 559.659 568.898 560.951 624.807 562.285C680.716 563.62 736.908 564.999 779.688 566.13C801.077 566.695 819.114 567.199 832.085 567.605C838.571 567.808 843.79 567.986 847.528 568.136C851.281 568.286 853.513 568.406 854.053 568.488L854.106 568.142ZM402.309 556.77L401.96 556.749L397.272 636.814L397.621 636.834L397.971 636.855L402.658 556.79L402.309 556.77ZM397.621 636.834C397.271 636.82 397.271 636.82 397.271 636.82C397.271 636.82 397.271 636.821 397.271 636.821C397.271 636.821 397.271 636.821 397.271 636.822C397.271 636.823 397.271 636.825 397.271 636.827C397.271 636.832 397.271 636.84 397.27 636.85C397.269 636.869 397.268 636.899 397.266 636.938C397.263 637.015 397.257 637.13 397.249 637.279C397.233 637.577 397.207 638.011 397.168 638.552C397.091 639.635 396.962 641.146 396.758 642.86C396.35 646.296 395.641 650.52 394.441 653.746L394.77 653.868L395.098 653.99C396.327 650.683 397.043 646.391 397.454 642.943C397.659 641.215 397.788 639.693 397.866 638.602C397.905 638.057 397.931 637.619 397.948 637.317C397.956 637.167 397.962 637.05 397.965 636.97C397.967 636.931 397.969 636.9 397.97 636.88C397.97 636.87 397.97 636.862 397.971 636.857C397.971 636.854 397.971 636.852 397.971 636.851C397.971 636.85 397.971 636.85 397.971 636.849C397.971 636.849 397.971 636.849 397.971 636.849C397.971 636.849 397.971 636.849 397.621 636.834ZM394.77 653.868L394.441 653.746C392.386 659.276 388.544 660.943 386.228 662.102L386.385 662.415L386.541 662.728C388.862 661.567 392.939 659.798 395.098 653.99L394.77 653.868ZM386.385 662.415L386.228 662.102C385.948 662.242 385.219 662.494 384.054 662.849C382.902 663.201 381.355 663.645 379.462 664.168C375.677 665.215 370.522 666.58 364.42 668.159C352.217 671.316 336.23 675.332 319.853 679.387C287.096 687.498 252.787 695.763 244.061 697.636L244.134 697.979L244.208 698.321C252.947 696.445 287.268 688.177 320.021 680.067C336.399 676.011 352.388 671.995 364.596 668.836C370.699 667.257 375.858 665.892 379.649 664.843C381.544 664.319 383.098 663.873 384.258 663.519C385.405 663.169 386.197 662.9 386.541 662.728L386.385 662.415ZM244.134 697.979L244.061 697.636C226.602 701.384 114.588 721.809 113.167 722.073L113.231 722.417L113.295 722.761C114.701 722.5 226.736 702.071 244.208 698.321L244.134 697.979ZM113.231 722.417L113.167 722.073C112.471 722.202 108.592 722.849 104.084 723.14C101.83 723.285 99.4244 723.341 97.1836 723.2C94.9379 723.059 92.8807 722.721 91.3107 722.092L91.1805 722.417L91.0503 722.742C92.7211 723.411 94.864 723.756 97.1396 723.899C99.42 724.042 101.857 723.985 104.129 723.839C108.672 723.546 112.578 722.894 113.295 722.761L113.231 722.417ZM91.1805 722.417L91.3107 722.092C89.7566 721.469 88.1174 720.182 86.511 718.551C84.9094 716.924 83.363 714.979 81.9917 713.072C79.2484 709.257 77.2281 705.624 76.8752 705.034L76.5749 705.214L76.2746 705.394C76.616 705.964 78.6577 709.634 81.4233 713.481C82.8064 715.404 84.3762 717.38 86.0122 719.042C87.6436 720.698 89.3636 722.066 91.0503 722.742L91.1805 722.417ZM76.5749 705.214L76.8752 705.034C75.4926 702.724 11.568 587.335 11.4639 587.147L11.1577 587.317L10.8516 587.486C10.9484 587.661 74.884 703.07 76.2746 705.394L76.5749 705.214ZM11.1577 587.317C11.3145 587.63 11.3145 587.63 11.3145 587.63C11.3145 587.63 11.3145 587.63 11.3145 587.63C11.3145 587.63 11.3145 587.63 11.3145 587.63C11.3145 587.63 11.3145 587.63 11.3146 587.63C11.3146 587.63 11.3147 587.63 11.3148 587.63C11.315 587.63 11.3153 587.629 11.3156 587.629C11.3164 587.629 11.3176 587.628 11.3191 587.627C11.3223 587.626 11.3269 587.624 11.3332 587.62C11.3456 587.614 11.3644 587.605 11.3893 587.592C11.4392 587.567 11.5139 587.53 11.6132 587.48L11.4568 587.167L11.3005 586.854C11.201 586.904 11.1261 586.941 11.0761 586.966C11.0511 586.979 11.0323 586.988 11.0198 586.994C11.0135 586.998 11.0088 587 11.0057 587.002C11.0041 587.002 11.0029 587.003 11.0021 587.003C11.0017 587.004 11.0014 587.004 11.0012 587.004C11.0011 587.004 11.0011 587.004 11.001 587.004C11.001 587.004 11.001 587.004 11.001 587.004C11.001 587.004 11.0009 587.004 11.0009 587.004C11.0009 587.004 11.0009 587.004 11.0009 587.004C11.0009 587.004 11.0009 587.004 11.1577 587.317ZM1247.34 588.51L1247.05 588.704C1247.04 588.695 1247.02 588.668 1247.01 588.626C1247 588.602 1246.97 588.483 1247.04 588.356C1247.09 588.283 1247.16 588.216 1247.27 588.191C1247.37 588.167 1247.46 588.191 1247.53 588.235C1247.68 588.33 1247.72 588.503 1247.68 588.633L1247.34 588.528L1247.01 588.424C1246.97 588.556 1247.01 588.732 1247.16 588.828C1247.23 588.873 1247.32 588.896 1247.43 588.872C1247.53 588.848 1247.61 588.78 1247.65 588.706C1247.72 588.576 1247.69 588.454 1247.68 588.422C1247.67 588.374 1247.64 588.338 1247.63 588.316L1247.34 588.51ZM1247.34 588.528L1246.68 588.319L1246.5 588.884L1247.03 589.152L1247.34 588.528ZM1247.35 588.518L1247.86 588.045L1247.22 587.342L1246.74 588.169L1247.35 588.518ZM1247.36 588.535L1247.1 587.882C1247.2 587.846 1247.36 587.808 1247.55 587.862C1247.71 587.91 1247.81 588.007 1247.83 588.02C1247.87 588.063 1247.78 587.963 1247.66 587.904L1247.34 588.528L1247.03 589.152C1246.92 589.097 1246.83 589.002 1246.87 589.047C1246.89 589.061 1246.99 589.16 1247.16 589.208C1247.35 589.263 1247.51 589.224 1247.61 589.188L1247.36 588.535ZM1247.34 588.528L1248.01 588.737C1248 588.768 1247.99 588.794 1247.98 588.814C1247.98 588.825 1247.97 588.834 1247.97 588.843C1247.97 588.847 1247.96 588.851 1247.96 588.855C1247.96 588.858 1247.96 588.86 1247.96 588.861C1247.96 588.862 1247.96 588.863 1247.96 588.864C1247.96 588.865 1247.96 588.865 1247.96 588.866C1247.95 588.866 1247.95 588.866 1247.95 588.867C1247.95 588.867 1247.95 588.867 1247.95 588.867C1247.95 588.867 1247.95 588.867 1247.95 588.867C1247.95 588.867 1247.95 588.867 1247.35 588.518C1246.74 588.169 1246.74 588.169 1246.74 588.17C1246.74 588.17 1246.74 588.17 1246.74 588.17C1246.74 588.17 1246.74 588.17 1246.74 588.17C1246.74 588.17 1246.74 588.171 1246.74 588.171C1246.74 588.171 1246.74 588.172 1246.74 588.172C1246.74 588.173 1246.74 588.174 1246.74 588.175C1246.74 588.177 1246.73 588.179 1246.73 588.182C1246.73 588.186 1246.73 588.19 1246.73 588.195C1246.72 588.205 1246.72 588.216 1246.71 588.228C1246.7 588.251 1246.69 588.282 1246.68 588.319L1247.34 588.528ZM1247.35 588.518C1246.83 588.992 1246.83 588.992 1246.83 588.992C1246.83 588.992 1246.83 588.992 1246.83 588.992C1246.83 588.992 1246.83 588.992 1246.83 588.992C1246.83 588.991 1246.83 588.991 1246.83 588.991C1246.83 588.991 1246.83 588.99 1246.83 588.99C1246.83 588.989 1246.83 588.989 1246.83 588.988C1246.83 588.986 1246.83 588.985 1246.82 588.983C1246.82 588.98 1246.82 588.976 1246.81 588.971C1246.81 588.964 1246.79 588.948 1246.78 588.926C1246.77 588.918 1246.72 588.85 1246.69 588.748C1246.68 588.702 1246.63 588.564 1246.67 588.389C1246.69 588.291 1246.74 588.181 1246.82 588.081C1246.91 587.98 1247.01 587.918 1247.1 587.882L1247.36 588.535L1247.61 589.188C1247.83 589.102 1247.99 588.911 1248.04 588.678C1248.08 588.502 1248.04 588.362 1248.02 588.315C1247.99 588.21 1247.94 588.138 1247.93 588.126C1247.91 588.1 1247.89 588.08 1247.88 588.07C1247.88 588.064 1247.88 588.059 1247.87 588.055C1247.87 588.053 1247.87 588.051 1247.87 588.049C1247.87 588.048 1247.87 588.047 1247.86 588.047C1247.86 588.046 1247.86 588.046 1247.86 588.046C1247.86 588.045 1247.86 588.045 1247.86 588.045C1247.86 588.045 1247.86 588.045 1247.86 588.045C1247.86 588.045 1247.86 588.045 1247.86 588.045C1247.86 588.045 1247.86 588.045 1247.35 588.518Z" fill="white" mask="url(#path-15-inside-1_8_105)"/>
</g>
<defs>
<clipPath id="clip0_8_105">
<rect width="1473" height="877" fill="white"/>
</clipPath>
</defs>
</svg>
