<svg viewBox="0 0 72.829 43" fill="none" xmlns="http://www.w3.org/2000/svg">
<g id="Frame 370347">
<g id="Vector">
<path d="M4.96726 20.5855C3.62394 20.3616 2.64044 19.7779 2.01676 18.8343C1.40906 17.8908 1.10522 16.7714 1.10522 15.4761C1.10522 14.5325 1.25714 13.549 1.56099 12.5256C1.86483 11.4861 2.29661 10.4706 2.85633 9.4791C3.43204 8.48761 4.11969 7.56808 4.91928 6.72051C5.71887 5.85695 6.62241 5.12132 7.6299 4.51363C8.63739 3.90594 9.73283 3.48215 10.9162 3.24228C11.6359 3.09835 12.3235 3.02639 12.9792 3.02639C14.2585 3.02639 15.282 3.28226 16.0496 3.79399C16.8172 4.28974 17.201 4.92942 17.201 5.71302C17.201 5.87294 17.185 6.03286 17.1531 6.19277C17.1371 6.3367 17.0891 6.49662 17.0091 6.67253C16.8332 7.1363 16.5374 7.55208 16.1216 7.9199C15.7218 8.27172 15.258 8.54358 14.7303 8.73548C14.2186 8.92738 13.6908 9.00734 13.1471 8.97536C12.8912 8.94338 12.6673 8.85542 12.4754 8.71149C12.2995 8.55158 12.2116 8.35967 12.2116 8.13579C12.2116 7.9119 12.3075 7.67202 12.4994 7.41615C12.6753 7.48012 12.8752 7.5121 13.0991 7.5121C13.4989 7.5121 13.8907 7.41615 14.2745 7.22425C14.6583 7.03235 14.9782 6.76848 15.234 6.43265C15.4899 6.09682 15.6178 5.72102 15.6178 5.30523C15.6178 4.74551 15.4259 4.3777 15.0421 4.20179C14.6583 4.00989 14.2265 3.91394 13.7468 3.91394C13.427 3.91394 13.1071 3.94592 12.7873 4.00988C12.4834 4.05786 12.2356 4.10584 12.0437 4.15381C11.1321 4.39369 10.1966 4.83347 9.23708 5.47314C8.29356 6.09682 7.43 6.86443 6.6464 7.77597C5.8628 8.67151 5.25511 9.65501 4.82333 10.7265C4.50349 11.5101 4.25562 12.3017 4.07971 13.1013C3.9038 13.9009 3.81584 14.6605 3.81584 15.3801C3.81584 16.3076 3.96776 17.1232 4.27161 17.8269C4.59145 18.5305 5.09519 19.0183 5.78284 19.2901C6.40652 19.53 7.0462 19.6499 7.70186 19.6499C8.75733 19.6499 9.82079 19.3941 10.8922 18.8823C11.9797 18.3706 12.9792 17.7229 13.8907 16.9393C14.4504 16.4436 14.9542 15.9318 15.4019 15.4041C15.8497 14.8764 16.1935 14.3166 16.4334 13.7249C16.7373 13.9168 16.8892 14.1967 16.8892 14.5645C16.8892 14.8524 16.8012 15.1642 16.6253 15.5C16.4654 15.8359 16.2735 16.1477 16.0496 16.4356C15.8417 16.7234 15.6578 16.9473 15.4979 17.1072C14.3785 18.2746 13.0352 19.1702 11.4679 19.7939C9.91674 20.4175 8.34154 20.7294 6.74235 20.7294C6.13466 20.7294 5.54296 20.6814 4.96726 20.5855Z" fill="black"/>
<path d="M22.9266 8.4956C22.5108 8.35168 22.3029 8.07982 22.3029 7.68002C22.3029 7.31221 22.4469 6.9364 22.7347 6.55259C23.0386 6.1528 23.3664 5.89693 23.7182 5.78498C23.7982 5.753 23.8621 5.73701 23.9101 5.73701C23.9741 5.73701 24.0381 5.73701 24.102 5.73701C24.3739 5.73701 24.5978 5.81697 24.7737 5.97688C24.9496 6.1368 25.0375 6.32071 25.0375 6.5286C25.0375 6.81646 24.8856 7.05634 24.5818 7.24824C24.3419 7.21625 24.11 7.27223 23.8861 7.41615C23.6622 7.56008 23.4623 7.73599 23.2864 7.94388C23.1265 8.15178 23.0066 8.33569 22.9266 8.4956ZM18.8007 20.1537C18.5928 20.1537 18.3929 20.1057 18.201 20.0097C18.0091 19.9298 17.8492 19.7619 17.7213 19.506C17.5454 19.1222 17.4574 18.6664 17.4574 18.1387C17.4574 17.563 17.5454 16.9233 17.7213 16.2197C17.8972 15.5 18.1291 14.7644 18.4169 14.0128C18.5289 13.7409 18.6728 13.4051 18.8487 13.0053C19.0246 12.6055 19.2325 12.2057 19.4724 11.8059C19.7123 11.4061 19.9841 11.0783 20.288 10.8224C20.6078 10.5506 20.9516 10.4146 21.3194 10.4146C21.4953 10.4146 21.7432 10.4226 22.0631 10.4386C22.3829 10.4546 22.6148 10.4546 22.7587 10.4386C22.6628 10.5026 22.5508 10.6305 22.4229 10.8224C22.2949 11.0143 22.175 11.2142 22.0631 11.4221C21.9511 11.614 21.8632 11.7659 21.7992 11.8779C21.3834 12.7095 20.9916 13.533 20.6238 14.3486C20.256 15.1642 19.9761 15.9478 19.7842 16.6994C19.7522 16.8274 19.7282 16.9553 19.7123 17.0832C19.6963 17.2112 19.6883 17.3311 19.6883 17.4431C19.6883 17.9068 19.8402 18.1387 20.144 18.1387C20.272 18.1387 20.4079 18.1067 20.5518 18.0427C20.7117 17.9628 20.8957 17.8428 21.1035 17.6829C21.4714 17.3951 21.7912 17.0672 22.0631 16.6994C22.3829 16.2836 22.6867 15.8439 22.9746 15.3801C23.2625 14.9003 23.5103 14.4606 23.7182 14.0608C23.7982 13.9328 23.8542 13.8689 23.8861 13.8689C23.9821 13.8689 24.0301 14.0048 24.0301 14.2767C24.0301 14.4046 24.0061 14.5565 23.9581 14.7324C23.9261 14.8924 23.8701 15.0443 23.7902 15.1882C23.5663 15.572 23.3024 15.9958 22.9986 16.4596C22.6947 16.9233 22.3829 17.3711 22.0631 17.8029C21.8392 18.1067 21.5433 18.4425 21.1755 18.8104C20.8077 19.1782 20.4159 19.498 20.0001 19.7699C19.5843 20.0257 19.1845 20.1537 18.8007 20.1537Z" fill="black"/>
<path d="M30.9097 20.1537C30.4139 20.1537 30.0701 19.9618 29.8782 19.578C29.7023 19.1942 29.6143 18.7224 29.6143 18.1627C29.6143 17.6509 29.6623 17.1472 29.7583 16.6515C29.8062 16.4276 29.8542 16.2037 29.9022 15.9798C29.9662 15.7399 30.0381 15.492 30.1181 15.2362C29.8462 15.7319 29.5584 16.2117 29.2545 16.6754C28.9667 17.1392 28.6708 17.547 28.367 17.8988C27.8552 18.5225 27.3115 19.0422 26.7358 19.458C26.1761 19.8738 25.6164 20.0817 25.0567 20.0817C24.6089 20.0817 24.2251 19.9218 23.9052 19.602C23.6014 19.2661 23.4495 18.6904 23.4495 17.8748C23.4495 17.0433 23.5934 16.1877 23.8813 15.3081C24.1691 14.4286 24.5689 13.613 25.0806 12.8614C25.6084 12.0938 26.2241 11.4781 26.9277 11.0143C27.6473 10.5506 28.4309 10.3187 29.2785 10.3187C29.5504 10.3187 29.8462 10.3587 30.1661 10.4386C30.4859 10.5186 30.7818 10.6705 31.0536 10.8944C31.3255 11.1023 31.5094 11.3981 31.6053 11.7819C31.6213 11.7499 31.6373 11.726 31.6533 11.71C31.6853 11.694 31.7093 11.678 31.7253 11.662C31.9492 11.3102 32.205 11.0143 32.4929 10.7744C32.7807 10.5346 33.1006 10.4146 33.4524 10.4146C33.6283 10.4146 33.8762 10.4226 34.196 10.4386C34.5159 10.4546 34.7477 10.4546 34.8917 10.4386C34.8117 10.5026 34.6998 10.6305 34.5558 10.8224C34.4279 11.0143 34.308 11.2142 34.196 11.4221C34.0841 11.614 33.9961 11.7659 33.9321 11.8779C33.5004 12.7095 33.1086 13.533 32.7567 14.3486C32.4049 15.1642 32.1331 15.9478 31.9412 16.6994C31.8932 16.8594 31.8612 17.0113 31.8452 17.1552C31.8292 17.2831 31.8212 17.4111 31.8212 17.539C31.8212 17.9548 31.9572 18.1627 32.229 18.1627C32.4849 18.1627 32.8047 18.0028 33.1885 17.6829C33.7482 17.2352 34.236 16.6754 34.6518 16.0038C35.0836 15.3321 35.4594 14.6845 35.7792 14.0608C35.8432 13.9488 35.8992 13.8929 35.9471 13.8929C36.0431 13.8929 36.0911 14.0288 36.0911 14.3007C36.0911 14.4286 36.0671 14.5725 36.0191 14.7324C35.9871 14.8924 35.9311 15.0443 35.8512 15.1882C35.6273 15.572 35.3314 16.0438 34.9636 16.6035C34.6118 17.1632 34.212 17.7149 33.7642 18.2586C33.3165 18.7864 32.8447 19.2341 32.349 19.602C31.8692 19.9698 31.3894 20.1537 30.9097 20.1537ZM26.1361 18.0667C26.1841 18.0827 26.2561 18.0907 26.352 18.0907C26.6559 18.0907 26.9837 17.9628 27.3355 17.7069C27.6873 17.451 28.0391 17.1232 28.391 16.7234C28.7428 16.3076 29.0546 15.8918 29.3265 15.4761C30.0301 14.3566 30.5499 13.517 30.8857 12.9573C31.2215 12.3976 31.4134 12.0778 31.4614 11.9978C31.3814 11.726 31.2375 11.5261 31.0296 11.3981C30.8377 11.2702 30.6058 11.2062 30.334 11.2062C29.9822 11.2062 29.6064 11.3022 29.2066 11.4941C28.8227 11.686 28.4949 11.9179 28.2231 12.1897C27.8073 12.6055 27.4075 13.1412 27.0237 13.7969C26.6558 14.4526 26.352 15.1002 26.1121 15.7399C25.8882 16.3796 25.7763 16.9153 25.7763 17.3471C25.7763 17.7469 25.8962 17.9868 26.1361 18.0667Z" fill="black"/>
<path d="M38.3856 20.2016C37.65 20.2016 37.0103 19.9698 36.4666 19.506C35.9389 19.0422 35.675 18.2986 35.675 17.2751C35.675 16.5235 35.8109 15.7399 36.0828 14.9243C36.3547 14.1087 36.7385 13.3491 37.2342 12.6455C37.746 11.9419 38.3616 11.3661 39.0813 10.9184C39.8009 10.4706 40.6085 10.2467 41.504 10.2467C42.2397 10.2467 42.8074 10.3906 43.2072 10.6785C43.623 10.9504 43.9188 11.3182 44.0947 11.7819C44.2706 12.2457 44.3586 12.7414 44.3586 13.2692C44.3586 13.669 44.3106 14.0768 44.2147 14.4926C44.1347 14.8924 44.0148 15.2921 43.8549 15.6919C44.1267 16.0118 44.4705 16.1717 44.8863 16.1717C45.3341 16.1717 45.7499 16.0038 46.1337 15.668C46.3576 15.4761 46.5575 15.2362 46.7334 14.9483C46.9253 14.6445 47.0932 14.3646 47.2371 14.1087C47.2851 14.0128 47.3411 13.9648 47.405 13.9648C47.485 13.9648 47.525 14.0768 47.525 14.3007C47.525 14.4446 47.501 14.6125 47.453 14.8044C47.421 14.9963 47.3411 15.1882 47.2131 15.3801C46.9733 15.7959 46.7254 16.1157 46.4695 16.3396C46.2137 16.5475 45.9258 16.7154 45.606 16.8434C45.3661 16.9393 45.1102 16.9873 44.8384 16.9873C44.3426 16.9873 43.8948 16.8354 43.495 16.5315C43.3671 16.8034 43.2072 17.0832 43.0153 17.3711C42.5515 18.1547 41.9518 18.8263 41.2162 19.3861C40.4806 19.9298 39.537 20.2016 38.3856 20.2016ZM39.2972 19.2901C39.665 19.2901 40.0168 19.1702 40.3526 18.9303C40.7045 18.6744 41.0243 18.3626 41.3121 17.9948C41.6 17.627 41.8479 17.2432 42.0558 16.8434C42.2797 16.4436 42.4636 16.0917 42.6075 15.7879C42.0638 15.3241 41.7919 14.7404 41.7919 14.0368C41.7919 13.573 41.9198 13.2132 42.1757 12.9573C42.4316 12.7015 42.7834 12.5895 43.2312 12.6215C43.2152 12.2537 43.1192 11.9498 42.9433 11.71C42.7674 11.4701 42.4796 11.3502 42.0798 11.3502C41.7119 11.3502 41.3601 11.4621 41.0243 11.686C40.7045 11.9099 40.4006 12.1977 40.1128 12.5495C39.8409 12.8854 39.593 13.2372 39.3691 13.605C39.1612 13.9568 38.9853 14.2767 38.8414 14.5645C38.6335 14.9803 38.4416 15.484 38.2657 16.0757C38.0898 16.6674 38.0018 17.2192 38.0018 17.7309C38.0018 18.1787 38.0898 18.5545 38.2657 18.8583C38.4576 19.1462 38.8014 19.2901 39.2972 19.2901Z" fill="black"/>
<path d="M3.38406 42.2841C1.80087 42.2841 0.913316 41.3486 0.913316 39.5975V29.4507C0.913316 27.6995 1.80087 26.764 3.38406 26.764H8.90125C12.5474 26.764 14.5144 28.1553 14.5144 30.674C14.5144 32.4491 13.5069 33.4566 11.6838 33.8884C14.0107 34.4401 15.0421 35.8794 15.0421 37.7984C15.0421 40.9168 13.0751 42.2841 8.32555 42.2841H3.38406ZM5.63891 33.1928H7.55794C8.94923 33.1928 9.64488 32.617 9.64488 31.5376C9.64488 30.5301 8.97322 30.0024 7.6299 30.0024H5.63891V33.1928ZM5.63891 39.0458H7.84579C9.50095 39.0458 10.1966 38.518 10.1966 37.2707C10.1966 36.0953 9.47696 35.6155 7.79782 35.6155H5.63891V39.0458Z" fill="#278EFF"/>
<path d="M19.1729 42.2841C17.5897 42.2841 16.7022 41.3966 16.7022 39.6455V29.4507C16.7022 27.6995 17.5897 26.764 19.1729 26.764H27.3767C28.888 26.764 29.5836 27.3637 29.5836 28.6351V28.755C29.5836 30.0743 28.888 30.6021 27.3767 30.6021H21.5237V32.641H25.4097C26.9929 32.641 27.6406 33.1448 27.6406 34.3202V34.3921C27.6406 35.6635 26.9689 36.1912 25.4097 36.1912H21.5237V38.4941H27.4727C29.0079 38.4941 29.7035 38.9738 29.7035 40.2212V40.3411C29.7035 41.6604 29.0079 42.2841 27.4727 42.2841H19.1729Z" fill="#FB9679"/>
<path d="M33.767 42.2841C32.1839 42.2841 31.2963 41.3966 31.2963 39.6455V28.875C31.2963 27.3637 32.0159 26.6441 33.3353 26.6441H34.0069C35.3982 26.6441 36.1178 27.3637 36.1178 28.875V38.0863H40.7715C42.2827 38.0863 43.0024 38.7819 43.0024 40.1012V40.1732C43.0024 41.5645 42.2827 42.2841 40.7715 42.2841H33.767Z" fill="#8DB5B0"/>
<path d="M46.8619 42.2841C45.2788 42.2841 44.3912 41.3966 44.3912 39.6455V28.875C44.3912 27.3637 45.1108 26.6441 46.4302 26.6441H47.1018C48.4931 26.6441 49.2128 27.3637 49.2128 28.875V38.0863H53.8664C55.3776 38.0863 56.0973 38.7819 56.0973 40.1012V40.1732C56.0973 41.5645 55.3776 42.2841 53.8664 42.2841H46.8619Z" fill="#8DB5B0"/>
<path d="M59.0453 42.5C57.726 42.5 56.4067 41.4446 56.5746 41.0128L61.564 27.9634C61.8039 27.1958 62.4516 26.6441 64.6345 26.6441C66.8174 26.6441 67.3691 27.1958 67.609 27.9634L72.8143 40.9648C72.9822 41.3966 71.6869 42.476 70.2476 42.476C69.2161 42.476 68.1607 41.9243 67.489 40.2212L67.0572 39.0938H62.1158L61.66 40.2692C61.0843 41.9243 60.0768 42.5 59.0453 42.5ZM62.9074 35.6155H66.1937L64.5625 31.1298L62.9074 35.6155Z" fill="#F5B675"/>
</g>
</g>
</svg>
