<svg preserveAspectRatio="xMidYMid meet" width="199" height="199" overflow="visible" style="display: block;" viewBox="0 0 199 199" fill="none" xmlns="http://www.w3.org/2000/svg">
<g id="5 11">
<path id="Vector" d="M174.233 73.1619C171.21 72.7788 168.434 74.4067 165.592 75.1519C160.754 76.5051 155.742 77.1499 150.946 78.5817C149.287 73.2416 147.317 68.0033 145.046 62.8935C143.147 58.5046 141.229 51.4291 136.96 58.9215C133.836 65.5711 129.108 71.7311 127.522 78.9717C124.073 78.9528 120.679 78.0384 117.252 78.2145C113.943 78.1697 110.387 79.0662 107.092 79.5966C104.605 80.2652 99.6378 79.0941 99.992 83.0224C100.347 84.9745 102.945 85.2114 104.189 86.5496C105.909 87.7775 107.671 88.9715 109.398 90.2222C108.961 90.3376 108.546 90.453 108.182 90.5396C102.272 91.3823 96.9383 94.1992 91.23 95.8041C86.4929 96.9818 81.8657 98.5644 77.3995 100.534C72.7476 103.036 68.3084 105.914 64.1262 109.14C57.4663 113.267 51.2743 118.104 45.659 123.568C41.7437 127.12 39.0572 131.699 35.6802 135.724C31.7459 139.79 27.0296 143.116 24.2377 148.183C22.3472 151.284 20.0845 154.362 19.6358 158.064C18.2945 164.308 21.2636 169.599 27.9013 166.059C22.3293 175.266 28.7968 181.229 37.1876 174.034C36.2483 176.368 36.0294 179.886 38.889 180.9C43.6561 181.847 48.0749 177.526 52.1604 175.554C55.208 173.736 57.013 170.607 59.2448 167.959C61.3661 165.562 63.7461 163.421 66.0913 161.249C68.5858 158.953 71.4166 156.999 73.5966 154.384C76.2528 150.834 79.2447 147.549 82.5307 144.573C84.5018 142.835 86.4222 141.042 88.2729 139.173C89.7246 137.927 91.4937 137.145 92.9653 135.925C97.5602 131.248 103.205 127.915 108.762 124.502C108.68 125.129 108.632 125.76 108.616 126.392C109.288 130.167 112.518 128.395 114.387 126.651C116.86 124.825 119.696 123.567 122.048 121.552C124.585 120.172 126.409 117.89 128.74 116.232C131.55 114.599 134.701 113.401 136.973 110.983C139.368 114.702 143.346 116.571 146.811 119.109C150.863 121.538 154.037 125.24 157.756 128.13C164.82 131.918 162.052 120.534 161.607 116.945C160.271 111.159 159.001 105.395 157.794 99.5742C157.681 98.0817 155.942 96.028 157.442 94.9106C162.409 90.7376 167.66 86.8203 171.798 81.7766C173.528 79.8254 178.448 75.1808 174.233 73.1619ZM110.034 119.071C108.748 119.537 107.377 120.796 106.3 121.212C100.795 124.448 95.7024 128.338 91.1335 132.799C87.9565 134.981 85.661 138.002 82.9019 140.63C80.0691 143.138 76.8194 145.122 73.9797 147.608C70.7957 151.129 67.164 154.209 64.0009 157.745C61.2288 161.184 57.7682 163.923 54.6479 167.015C52.8626 168.968 50.7692 170.615 48.451 171.891C46.7864 172.651 38.5607 180.961 38.8582 175.702C40.0084 171.025 43.9038 167.759 46.7187 164.054C47.1581 163.513 47.5207 162.914 47.7963 162.274C48.451 160.881 47.047 158.609 45.5356 159.845V159.837C42.47 162.932 39.4015 166.033 36.3637 169.159C34.8237 170.545 33.1871 171.821 31.4663 172.976C30.4156 173.101 28.7709 173.341 28.349 172.076C27.8814 168.991 30.2276 166.029 31.931 163.639C34.1001 161.826 40.8572 156.369 38.1786 153.353C36.5528 152.059 35.1488 154.363 34.122 155.392C32.2375 157.255 25.4655 164.216 22.9482 162.37C22.8877 162.237 22.8349 162.101 22.7899 161.963C22.2636 158.13 24.8416 154.898 26.6535 151.758C30.6266 144.472 36.2115 138.226 41.7636 132.118C47.5784 126.7 54.2419 122.236 59.8875 116.613C62.6865 114.353 65.8983 112.7 68.9171 110.763C73.2414 108.215 77.3468 105.281 81.88 103.101C88.6092 99.2389 95.816 96.2011 103.623 95.4628C106.421 95.3775 109.209 95.0724 111.96 94.5504C112.29 94.5368 112.61 94.437 112.889 94.2611C113.169 94.0851 113.397 93.8391 113.552 93.5475C114.374 94.281 115.155 95.0596 115.89 95.8797C113.846 100.909 113.687 106.386 112.286 111.583C111.717 114.058 110.806 116.552 110.034 119.071ZM158.014 91.4649C156.756 92.5326 155.196 93.4748 154.69 95.1464C154.193 98.7434 155.323 102.443 155.594 106.05C156.085 112.298 157.801 118.235 158.847 124.414C152.315 120.88 146.953 115.516 141.877 110.2C140.511 108.262 138.81 104.224 135.799 105.614C132.462 109.569 127.581 111.722 124.001 115.476C120.402 118.344 115.933 119.921 112.334 122.785C113.209 114.805 115.185 106.985 118.206 99.5473C118.796 97.5523 120.594 95.2589 119.494 93.1793C116.857 89.0511 112.491 86.7944 108.455 84.286C112.759 83.49 117.051 82.3408 121.463 82.5706C122.735 82.4592 123.993 82.2343 125.262 82.108C126.522 81.8264 128.446 82.5169 129.179 81.1786C130.694 80.8801 130.783 79.0603 131.279 77.8792C133.91 71.7873 136.9 65.8569 140.234 60.1194C142.711 63.4487 144.087 67.4735 145.425 71.3629C146.221 74.1917 146.502 85.3646 150.915 83.9139C156.74 82.2443 162.298 79.7538 168.345 78.9289C165.388 83.4859 161.922 87.6916 158.014 91.4649Z" fill="var(--fill-0, #FB9679)"/>
</g>
</svg>
