<svg preserveAspectRatio="none" width="100%" height="100%" overflow="visible" style="display: block;" viewBox="0 0 50.9401 50.8176" fill="none" xmlns="http://www.w3.org/2000/svg">
<g id="Group">
<path id="Vector" d="M28.6201 47.7004C32.657 47.6738 36.2444 45.9461 39.2946 43.387C42.4357 40.6872 44.9759 37.3182 45.8596 33.21C48.5443 26.4329 49.1364 18.8964 44.2505 12.9733C41.8518 8.36963 38.431 7.62728 33.7718 6.38687C31.6987 5.34341 26.97 6.65262 26.5086 4.04177C22.9256 4.40095 18.8705 4.52973 15.8335 6.63811C12.5756 8.4094 9.25904 10.1144 7.10836 13.2833C5.25136 16.5876 4.04816 20.2186 3.56452 23.9779C3.56452 25.9033 3.72613 27.8077 3.79746 29.7305C4.04364 31.9532 3.90287 34.3879 5.18052 36.3246C7.79517 40.3015 10.6869 43.1648 15.3298 44.6205C19.7763 45.7567 24.1768 47.3929 28.7792 47.6903L28.6201 47.7004ZM21.3172 50.7083C14.9637 50.7329 8.62021 47.8436 5.38884 42.223C4.15916 40.5186 2.46867 39.1299 1.55336 37.2077C0.0357809 32.8442 -0.378214 28.1729 0.348298 23.6105C1.70158 19.0333 3.67487 14.6628 6.21325 10.6207C8.29196 7.68788 10.8611 5.16981 14.1948 3.72551C17.7607 1.18915 22.165 0.481516 26.4297 0.037747C28.4643 -0.129544 30.5061 0.261343 32.3351 1.16832C34.6097 1.67327 36.7958 2.51631 38.8205 3.66933C41.6855 4.99318 43.9415 7.35476 45.133 10.2773C46.1298 12.3288 47.8329 14.061 48.7141 16.1548C52.4606 22.6283 50.8888 30.2368 48.3114 36.793C44.3888 46.7913 31.4021 51.6223 21.3172 50.7083Z" fill="var(--fill-0, white)"/>
<path id="Vector_2" d="M33.946 21.374C31.3843 20.6165 32.4903 15.6461 35.1636 16.324C37.741 16.9711 36.4867 21.9068 33.946 21.374Z" fill="var(--fill-0, white)"/>
<path id="Vector_3" d="M16.2987 21.102C14.7041 19.325 16.6698 14.547 18.9341 17.2677C20.47 18.9967 18.4986 23.4792 16.2987 21.102Z" fill="var(--fill-0, white)"/>
<path id="Vector_4" d="M25.4582 37.1818C23.8397 37.1136 22.1044 37.1225 20.84 35.9673C18.6306 35.5412 15.7843 32.8559 17.5366 30.608C18.6514 29.4989 19.4266 30.7847 20.2031 31.5239C20.6986 31.9405 21.4024 31.8888 21.9605 32.1899C22.4939 32.4184 22.8802 32.9436 23.4893 32.9808C26.9953 33.3596 28.2338 33.501 30.7355 30.7468C31.3711 30.0853 31.5769 28.985 32.4676 28.6088C32.6689 28.5414 32.8848 28.5304 33.0919 28.577C33.299 28.6237 33.4894 28.7261 33.6424 28.8733C35.841 31.4242 31.101 35.1227 29.228 36.5525C27.9226 37.2696 26.7813 37.108 25.4582 37.1818Z" fill="var(--fill-0, white)"/>
</g>
</svg>
